<svg xmlns:xlink="http://www.w3.org/1999/xlink" xmlns="http://www.w3.org/2000/svg" viewBox="0 0 472.02 300.38" width="500"  height="318" ><defs><style>.a{fill:#9d9d9c;stroke:#9d9d9c;}.a,.b{stroke-miterlimit:10;stroke-width:0.75px;}.b{fill:#1d1d1b;stroke:#1d1d1b;}</style></defs><circle class="a svLOGO-1" cx="48.16" cy="77.19" r="47.79" stroke="#9D9D9C" fill="#9D9D9C" stroke-width="0.75px"></circle><circle class="a svLOGO-2" cx="97.24" cy="165.01" r="47.79" stroke="#9D9D9C" fill="#9D9D9C" stroke-width="0.75px"></circle><path class="a svLOGO-3" d="M147.3,29.4a47.79,47.79,0,0,0,0,95.58c.73,0,1.45,0,2.17-.06V29.45C148.75,29.42,148,29.4,147.3,29.4Z" stroke="#9D9D9C" fill="#9D9D9C" stroke-width="0.75px"></path><path class="a svLOGO-4" d="M101.68,252a47.79,47.79,0,0,0,47.79,47.79V204.23A47.79,47.79,0,0,0,101.68,252Z" stroke="#9D9D9C" fill="#9D9D9C" stroke-width="0.75px"></path><polygon class="b svLOGO-5" points="194.34 90.63 210.74 90.63 210.74 40.99 224.16 40.99 224.16 26.2 180.92 26.2 180.92 40.99 194.34 40.99 194.34 90.63" stroke="#1D1D1B" fill="#1D1D1B" stroke-width="0.75px"></polygon><path class="b svLOGO-6" d="M255.58,92c20.15,0,34.23-13.78,34.23-33.51,0-19.47-14.4-33.6-34.23-33.6S221.35,39,221.35,58.46C221.35,78.19,235.42,92,255.58,92ZM238.11,58.46c0-10.76,7.18-18.28,17.47-18.28s17.47,7.52,17.47,18.28-7.19,18.19-17.47,18.19S238.11,69.17,238.11,58.46Z" stroke="#1D1D1B" fill="#1D1D1B" stroke-width="0.75px"></path><path class="b svLOGO-7" d="M312.17,68.54h5.12c7.19,0,12.84-2,16.81-6,4.89-4.89,5.62-11.5,5.62-15,0-3.76-.9-10.87-6.9-16.2C327.91,27,322.75,26.2,315.5,26.2H295.76V90.63h16.41ZM323,47.28a6.49,6.49,0,0,1-2.27,5.07c-1.87,1.4-4.15,1.4-6.17,1.4h-2.35V41h1.63c2.33,0,5,.11,6.82,1.41A5.84,5.84,0,0,1,323,47.28Z" stroke="#1D1D1B" fill="#1D1D1B" stroke-width="0.75px"></path><polygon class="b svLOGO-8" points="195.37 225.18 223.67 225.18 223.67 99.68 180.38 99.68 180.38 124.72 195.37 124.72 195.37 225.18" stroke="#1D1D1B" fill="#1D1D1B" stroke-width="0.75px"></polygon><path class="b svLOGO-9" d="M283.49,97c-23.64,0-49.09,20.46-49.09,65.38s25.45,65.55,49.09,65.55,49.08-20.45,49.08-65.37S307.13,97,283.49,97Zm20.78,65.38c0,32-13.06,40.51-20.78,40.51-10.35,0-20.79-12.53-20.79-40.51,0-27.71,10.78-40.33,20.79-40.33S304.27,134.63,304.27,162.34Z" stroke="#1D1D1B" fill="#1D1D1B" stroke-width="0.75px"></path><path class="b svLOGO-10" d="M386.29,227.89c23.64,0,49.09-20.45,49.09-65.37S409.93,97,386.29,97s-49.08,20.46-49.08,65.38S362.65,227.89,386.29,227.89Zm-20.78-65.55c0-27.71,10.77-40.33,20.78-40.33s20.78,12.62,20.78,40.33c0,32-13.06,40.51-20.78,40.51C376,202.85,365.51,190.32,365.51,162.34Z" stroke="#1D1D1B" fill="#1D1D1B" stroke-width="0.75px"></path><polygon class="b svLOGO-11" points="258.95 269.88 246.83 233.69 236.99 233.69 224.18 269.83 212.5 234.22 195.07 234.22 217.84 300 229.45 300 241.58 265.73 253.15 300 264.76 300 288.97 234.22 271.51 234.22 258.95 269.88" stroke="#1D1D1B" fill="#1D1D1B" stroke-width="0.75px"></polygon><rect class="b svLOGO-12" x="290.13" y="234.22" width="16.4" height="64.43" stroke="#1D1D1B" fill="#1D1D1B" stroke-width="0.75px"></rect><polygon class="b svLOGO-13" points="359.73 270.42 326.88 232.88 315.36 232.88 315.36 298.66 331.76 298.66 331.76 262.28 364.6 299.82 376.12 299.82 376.12 234.22 359.73 234.22 359.73 270.42" stroke="#1D1D1B" fill="#1D1D1B" stroke-width="0.75px"></polygon><polygon class="b svLOGO-14" points="384.94 298.66 422.81 298.66 422.81 283.87 401.35 283.87 401.35 272.36 421.92 272.36 421.92 257.57 401.35 257.57 401.35 249.01 422.81 249.01 422.81 234.22 384.94 234.22 384.94 298.66" stroke="#1D1D1B" fill="#1D1D1B" stroke-width="0.75px"></polygon><path class="b svLOGO-15" d="M465.77,263.74c-3.3-3-7.79-4.72-12.88-6.48-3.63-1.29-5.28-1.91-6.39-2.95a2.66,2.66,0,0,1-1.06-2.23c0-1.38.57-4.59,5.84-4.59a9.38,9.38,0,0,1,7.85,4.15l1.89,2.52,9.24-12.1-1.43-1.48a25.37,25.37,0,0,0-18.62-7.7c-14.87,0-21.53,10-21.53,19.92a16.46,16.46,0,0,0,5.55,12.88A30.76,30.76,0,0,0,445,271.34l.44.15c3,1,6.16,2.1,7.9,3.71a4.54,4.54,0,0,1,1.58,3.63c0,3.55-2.68,5.84-6.83,5.84A11.59,11.59,0,0,1,437.68,278l-1.43-2.91L424.82,286l1.15,1.67c3.15,4.6,10.27,12.31,22.54,12.31,13.62,0,23.14-9,23.14-22C471.65,270.59,468.45,266.15,465.77,263.74Z" stroke="#1D1D1B" fill="#1D1D1B" stroke-width="0.75px"></path><path class="b svLOGO-16" d="M276.86,21c-4.26-.5-6.6-.8-10.07-.94l-4.37-3.92c-1.77-1.58-3.52-3.17-5.28-4.75-2.06-1.87-2-1.87-4.2.07-4.75,4.3-4.46,4-9.3,8.38-2.82.25-6.42.81-10.24,1.15,5.56-6.13,11-12.16,16.47-18.13,4-3.33,8-3.57,11.74.5,3.36,3.67,6.51,7.51,9.75,11.27Z" stroke="#1D1D1B" fill="#1D1D1B" stroke-width="0.75px"></path><style> /***************************************************
* Generated by SVG Artista on 5/26/2022, 1:11:53 PM
* MIT license (https://opensource.org/licenses/MIT)
* W. https://svgartista.net
**************************************************/
@-webkit-keyframes animate-svg-stroke-1 {
0% {
stroke-dashoffset: 302.27342583011244px;
stroke-dasharray: 302.27342583011244px;
}
100% {
stroke-dashoffset: 0;
stroke-dasharray: 302.27342583011244px;
}
}
@keyframes animate-svg-stroke-1 {
0% {
stroke-dashoffset: 302.27342583011244px;
stroke-dasharray: 302.27342583011244px;
}
100% {
stroke-dashoffset: 0;
stroke-dasharray: 302.27342583011244px;
}
}
@-webkit-keyframes animate-svg-fill-1 {
0% {
fill: transparent;
}
100% {
fill: rgb(157, 157, 156);
}
}
@keyframes animate-svg-fill-1 {
0% {
fill: transparent;
}
100% {
fill: rgb(157, 157, 156);
}
}
.svLOGO-1 {
-webkit-animation: animate-svg-stroke-1 2s cubic-bezier(0.25, 0.46, 0.45, 0.94) 0s both,
animate-svg-fill-1 1s cubic-bezier(0.68, -0.55, 0.265, 1.55) 0.8s both;
animation: animate-svg-stroke-1 2s cubic-bezier(0.25, 0.46, 0.45, 0.94) 0s both,
animate-svg-fill-1 1s cubic-bezier(0.68, -0.55, 0.265, 1.55) 0.8s both;
}
@-webkit-keyframes animate-svg-stroke-2 {
0% {
stroke-dashoffset: 302.27342583011244px;
stroke-dasharray: 302.27342583011244px;
}
100% {
stroke-dashoffset: 0;
stroke-dasharray: 302.27342583011244px;
}
}
@keyframes animate-svg-stroke-2 {
0% {
stroke-dashoffset: 302.27342583011244px;
stroke-dasharray: 302.27342583011244px;
}
100% {
stroke-dashoffset: 0;
stroke-dasharray: 302.27342583011244px;
}
}
@-webkit-keyframes animate-svg-fill-2 {
0% {
fill: transparent;
}
100% {
fill: rgb(157, 157, 156);
}
}
@keyframes animate-svg-fill-2 {
0% {
fill: transparent;
}
100% {
fill: rgb(157, 157, 156);
}
}
.svLOGO-2 {
-webkit-animation: animate-svg-stroke-2 2s cubic-bezier(0.25, 0.46, 0.45, 0.94) 0.12s both,
animate-svg-fill-2 1s cubic-bezier(0.68, -0.55, 0.265, 1.55) 0.9s both;
animation: animate-svg-stroke-2 2s cubic-bezier(0.25, 0.46, 0.45, 0.94) 0.12s both,
animate-svg-fill-2 1s cubic-bezier(0.68, -0.55, 0.265, 1.55) 0.9s both;
}
@-webkit-keyframes animate-svg-stroke-3 {
0% {
stroke-dashoffset: 251.97000122070312px;
stroke-dasharray: 251.97000122070312px;
}
100% {
stroke-dashoffset: 0;
stroke-dasharray: 251.97000122070312px;
}
}
@keyframes animate-svg-stroke-3 {
0% {
stroke-dashoffset: 251.97000122070312px;
stroke-dasharray: 251.97000122070312px;
}
100% {
stroke-dashoffset: 0;
stroke-dasharray: 251.97000122070312px;
}
}
@-webkit-keyframes animate-svg-fill-3 {
0% {
fill: transparent;
}
100% {
fill: rgb(157, 157, 156);
}
}
@keyframes animate-svg-fill-3 {
0% {
fill: transparent;
}
100% {
fill: rgb(157, 157, 156);
}
}
.svLOGO-3 {
-webkit-animation: animate-svg-stroke-3 2s cubic-bezier(0.25, 0.46, 0.45, 0.94) 0.24s both,
animate-svg-fill-3 1s cubic-bezier(0.68, -0.55, 0.265, 1.55) 1s both;
animation: animate-svg-stroke-3 2s cubic-bezier(0.25, 0.46, 0.45, 0.94) 0.24s both,
animate-svg-fill-3 1s cubic-bezier(0.68, -0.55, 0.265, 1.55) 1s both;
}
@-webkit-keyframes animate-svg-stroke-4 {
0% {
stroke-dashoffset: 247.69793701171875px;
stroke-dasharray: 247.69793701171875px;
}
100% {
stroke-dashoffset: 0;
stroke-dasharray: 247.69793701171875px;
}
}
@keyframes animate-svg-stroke-4 {
0% {
stroke-dashoffset: 247.69793701171875px;
stroke-dasharray: 247.69793701171875px;
}
100% {
stroke-dashoffset: 0;
stroke-dasharray: 247.69793701171875px;
}
}
@-webkit-keyframes animate-svg-fill-4 {
0% {
fill: transparent;
}
100% {
fill: rgb(157, 157, 156);
}
}
@keyframes animate-svg-fill-4 {
0% {
fill: transparent;
}
100% {
fill: rgb(157, 157, 156);
}
}
.svLOGO-4 {
-webkit-animation: animate-svg-stroke-4 2s cubic-bezier(0.25, 0.46, 0.45, 0.94) 0.36s both,
animate-svg-fill-4 1s cubic-bezier(0.68, -0.55, 0.265, 1.55) 1.1s both;
animation: animate-svg-stroke-4 2s cubic-bezier(0.25, 0.46, 0.45, 0.94) 0.36s both,
animate-svg-fill-4 1s cubic-bezier(0.68, -0.55, 0.265, 1.55) 1.1s both;
}
@-webkit-keyframes animate-svg-stroke-5 {
0% {
stroke-dashoffset: 217.34002685546875px;
stroke-dasharray: 217.34002685546875px;
}
100% {
stroke-dashoffset: 0;
stroke-dasharray: 217.34002685546875px;
}
}
@keyframes animate-svg-stroke-5 {
0% {
stroke-dashoffset: 217.34002685546875px;
stroke-dasharray: 217.34002685546875px;
}
100% {
stroke-dashoffset: 0;
stroke-dasharray: 217.34002685546875px;
}
}
@-webkit-keyframes animate-svg-fill-5 {
0% {
fill: transparent;
}
100% {
fill: rgb(29, 29, 27);
}
}
@keyframes animate-svg-fill-5 {
0% {
fill: transparent;
}
100% {
fill: rgb(29, 29, 27);
}
}
.svLOGO-5 {
-webkit-animation: animate-svg-stroke-5 2s cubic-bezier(0.25, 0.46, 0.45, 0.94) 0.48s both,
animate-svg-fill-5 1s cubic-bezier(0.68, -0.55, 0.265, 1.55) 1.2000000000000002s both;
animation: animate-svg-stroke-5 2s cubic-bezier(0.25, 0.46, 0.45, 0.94) 0.48s both,
animate-svg-fill-5 1s cubic-bezier(0.68, -0.55, 0.265, 1.55) 1.2000000000000002s both;
}
@-webkit-keyframes animate-svg-stroke-6 {
0% {
stroke-dashoffset: 330.2437438964844px;
stroke-dasharray: 330.2437438964844px;
}
100% {
stroke-dashoffset: 0;
stroke-dasharray: 330.2437438964844px;
}
}
@keyframes animate-svg-stroke-6 {
0% {
stroke-dashoffset: 330.2437438964844px;
stroke-dasharray: 330.2437438964844px;
}
100% {
stroke-dashoffset: 0;
stroke-dasharray: 330.2437438964844px;
}
}
@-webkit-keyframes animate-svg-fill-6 {
0% {
fill: transparent;
}
100% {
fill: rgb(29, 29, 27);
}
}
@keyframes animate-svg-fill-6 {
0% {
fill: transparent;
}
100% {
fill: rgb(29, 29, 27);
}
}
.svLOGO-6 {
-webkit-animation: animate-svg-stroke-6 2s cubic-bezier(0.25, 0.46, 0.45, 0.94) 0.6s both,
animate-svg-fill-6 1s cubic-bezier(0.68, -0.55, 0.265, 1.55) 1.3s both;
animation: animate-svg-stroke-6 2s cubic-bezier(0.25, 0.46, 0.45, 0.94) 0.6s both,
animate-svg-fill-6 1s cubic-bezier(0.68, -0.55, 0.265, 1.55) 1.3s both;
}
@-webkit-keyframes animate-svg-stroke-7 {
0% {
stroke-dashoffset: 242.86602783203125px;
stroke-dasharray: 242.86602783203125px;
}
100% {
stroke-dashoffset: 0;
stroke-dasharray: 242.86602783203125px;
}
}
@keyframes animate-svg-stroke-7 {
0% {
stroke-dashoffset: 242.86602783203125px;
stroke-dasharray: 242.86602783203125px;
}
100% {
stroke-dashoffset: 0;
stroke-dasharray: 242.86602783203125px;
}
}
@-webkit-keyframes animate-svg-fill-7 {
0% {
fill: transparent;
}
100% {
fill: rgb(29, 29, 27);
}
}
@keyframes animate-svg-fill-7 {
0% {
fill: transparent;
}
100% {
fill: rgb(29, 29, 27);
}
}
.svLOGO-7 {
-webkit-animation: animate-svg-stroke-7 2s cubic-bezier(0.25, 0.46, 0.45, 0.94) 0.72s both,
animate-svg-fill-7 1s cubic-bezier(0.68, -0.55, 0.265, 1.55) 1.4000000000000001s both;
animation: animate-svg-stroke-7 2s cubic-bezier(0.25, 0.46, 0.45, 0.94) 0.72s both,
animate-svg-fill-7 1s cubic-bezier(0.68, -0.55, 0.265, 1.55) 1.4000000000000001s both;
}
@-webkit-keyframes animate-svg-stroke-8 {
0% {
stroke-dashoffset: 339.5799560546875px;
stroke-dasharray: 339.5799560546875px;
}
100% {
stroke-dashoffset: 0;
stroke-dasharray: 339.5799560546875px;
}
}
@keyframes animate-svg-stroke-8 {
0% {
stroke-dashoffset: 339.5799560546875px;
stroke-dasharray: 339.5799560546875px;
}
100% {
stroke-dashoffset: 0;
stroke-dasharray: 339.5799560546875px;
}
}
@-webkit-keyframes animate-svg-fill-8 {
0% {
fill: transparent;
}
100% {
fill: rgb(29, 29, 27);
}
}
@keyframes animate-svg-fill-8 {
0% {
fill: transparent;
}
100% {
fill: rgb(29, 29, 27);
}
}
.svLOGO-8 {
-webkit-animation: animate-svg-stroke-8 2s cubic-bezier(0.25, 0.46, 0.45, 0.94) 0.84s both,
animate-svg-fill-8 1s cubic-bezier(0.68, -0.55, 0.265, 1.55) 1.5s both;
animation: animate-svg-stroke-8 2s cubic-bezier(0.25, 0.46, 0.45, 0.94) 0.84s both,
animate-svg-fill-8 1s cubic-bezier(0.68, -0.55, 0.265, 1.55) 1.5s both;
}
@-webkit-keyframes animate-svg-stroke-9 {
0% {
stroke-dashoffset: 566.076171875px;
stroke-dasharray: 566.076171875px;
}
100% {
stroke-dashoffset: 0;
stroke-dasharray: 566.076171875px;
}
}
@keyframes animate-svg-stroke-9 {
0% {
stroke-dashoffset: 566.076171875px;
stroke-dasharray: 566.076171875px;
}
100% {
stroke-dashoffset: 0;
stroke-dasharray: 566.076171875px;
}
}
@-webkit-keyframes animate-svg-fill-9 {
0% {
fill: transparent;
}
100% {
fill: rgb(29, 29, 27);
}
}
@keyframes animate-svg-fill-9 {
0% {
fill: transparent;
}
100% {
fill: rgb(29, 29, 27);
}
}
.svLOGO-9 {
-webkit-animation: animate-svg-stroke-9 2s cubic-bezier(0.25, 0.46, 0.45, 0.94) 0.96s both,
animate-svg-fill-9 1s cubic-bezier(0.68, -0.55, 0.265, 1.55) 1.6s both;
animation: animate-svg-stroke-9 2s cubic-bezier(0.25, 0.46, 0.45, 0.94) 0.96s both,
animate-svg-fill-9 1s cubic-bezier(0.68, -0.55, 0.265, 1.55) 1.6s both;
}
@-webkit-keyframes animate-svg-stroke-10 {
0% {
stroke-dashoffset: 565.984130859375px;
stroke-dasharray: 565.984130859375px;
}
100% {
stroke-dashoffset: 0;
stroke-dasharray: 565.984130859375px;
}
}
@keyframes animate-svg-stroke-10 {
0% {
stroke-dashoffset: 565.984130859375px;
stroke-dasharray: 565.984130859375px;
}
100% {
stroke-dashoffset: 0;
stroke-dasharray: 565.984130859375px;
}
}
@-webkit-keyframes animate-svg-fill-10 {
0% {
fill: transparent;
}
100% {
fill: rgb(29, 29, 27);
}
}
@keyframes animate-svg-fill-10 {
0% {
fill: transparent;
}
100% {
fill: rgb(29, 29, 27);
}
}
.svLOGO-10 {
-webkit-animation: animate-svg-stroke-10 2s cubic-bezier(0.25, 0.46, 0.45, 0.94) 1.08s both,
animate-svg-fill-10 1s cubic-bezier(0.68, -0.55, 0.265, 1.55) 1.7000000000000002s both;
animation: animate-svg-stroke-10 2s cubic-bezier(0.25, 0.46, 0.45, 0.94) 1.08s both,
animate-svg-fill-10 1s cubic-bezier(0.68, -0.55, 0.265, 1.55) 1.7000000000000002s both;
}
@-webkit-keyframes animate-svg-stroke-11 {
0% {
stroke-dashoffset: 433.96954345703125px;
stroke-dasharray: 433.96954345703125px;
}
100% {
stroke-dashoffset: 0;
stroke-dasharray: 433.96954345703125px;
}
}
@keyframes animate-svg-stroke-11 {
0% {
stroke-dashoffset: 433.96954345703125px;
stroke-dasharray: 433.96954345703125px;
}
100% {
stroke-dashoffset: 0;
stroke-dasharray: 433.96954345703125px;
}
}
@-webkit-keyframes animate-svg-fill-11 {
0% {
fill: transparent;
}
100% {
fill: rgb(29, 29, 27);
}
}
@keyframes animate-svg-fill-11 {
0% {
fill: transparent;
}
100% {
fill: rgb(29, 29, 27);
}
}
.svLOGO-11 {
-webkit-animation: animate-svg-stroke-11 2s cubic-bezier(0.25, 0.46, 0.45, 0.94) 1.2s both,
animate-svg-fill-11 1s cubic-bezier(0.68, -0.55, 0.265, 1.55) 1.8s both;
animation: animate-svg-stroke-11 2s cubic-bezier(0.25, 0.46, 0.45, 0.94) 1.2s both,
animate-svg-fill-11 1s cubic-bezier(0.68, -0.55, 0.265, 1.55) 1.8s both;
}
@-webkit-keyframes animate-svg-stroke-12 {
0% {
stroke-dashoffset: 163.65997314453125px;
stroke-dasharray: 163.65997314453125px;
}
100% {
stroke-dashoffset: 0;
stroke-dasharray: 163.65997314453125px;
}
}
@keyframes animate-svg-stroke-12 {
0% {
stroke-dashoffset: 163.65997314453125px;
stroke-dasharray: 163.65997314453125px;
}
100% {
stroke-dashoffset: 0;
stroke-dasharray: 163.65997314453125px;
}
}
@-webkit-keyframes animate-svg-fill-12 {
0% {
fill: transparent;
}
100% {
fill: rgb(29, 29, 27);
}
}
@keyframes animate-svg-fill-12 {
0% {
fill: transparent;
}
100% {
fill: rgb(29, 29, 27);
}
}
.svLOGO-12 {
-webkit-animation: animate-svg-stroke-12 2s cubic-bezier(0.25, 0.46, 0.45, 0.94) 1.3199999999999998s both,
animate-svg-fill-12 1s cubic-bezier(0.68, -0.55, 0.265, 1.55) 1.9000000000000001s both;
animation: animate-svg-stroke-12 2s cubic-bezier(0.25, 0.46, 0.45, 0.94) 1.3199999999999998s both,
animate-svg-fill-12 1s cubic-bezier(0.68, -0.55, 0.265, 1.55) 1.9000000000000001s both;
}
@-webkit-keyframes animate-svg-stroke-13 {
0% {
stroke-dashoffset: 361.5506896972656px;
stroke-dasharray: 361.5506896972656px;
}
100% {
stroke-dashoffset: 0;
stroke-dasharray: 361.5506896972656px;
}
}
@keyframes animate-svg-stroke-13 {
0% {
stroke-dashoffset: 361.5506896972656px;
stroke-dasharray: 361.5506896972656px;
}
100% {
stroke-dashoffset: 0;
stroke-dasharray: 361.5506896972656px;
}
}
@-webkit-keyframes animate-svg-fill-13 {
0% {
fill: transparent;
}
100% {
fill: rgb(29, 29, 27);
}
}
@keyframes animate-svg-fill-13 {
0% {
fill: transparent;
}
100% {
fill: rgb(29, 29, 27);
}
}
.svLOGO-13 {
-webkit-animation: animate-svg-stroke-13 2s cubic-bezier(0.25, 0.46, 0.45, 0.94) 1.44s both,
animate-svg-fill-13 1s cubic-bezier(0.68, -0.55, 0.265, 1.55) 2s both;
animation: animate-svg-stroke-13 2s cubic-bezier(0.25, 0.46, 0.45, 0.94) 1.44s both,
animate-svg-fill-13 1s cubic-bezier(0.68, -0.55, 0.265, 1.55) 2s both;
}
@-webkit-keyframes animate-svg-stroke-14 {
0% {
stroke-dashoffset: 290.67999267578125px;
stroke-dasharray: 290.67999267578125px;
}
100% {
stroke-dashoffset: 0;
stroke-dasharray: 290.67999267578125px;
}
}
@keyframes animate-svg-stroke-14 {
0% {
stroke-dashoffset: 290.67999267578125px;
stroke-dasharray: 290.67999267578125px;
}
100% {
stroke-dashoffset: 0;
stroke-dasharray: 290.67999267578125px;
}
}
@-webkit-keyframes animate-svg-fill-14 {
0% {
fill: transparent;
}
100% {
fill: rgb(29, 29, 27);
}
}
@keyframes animate-svg-fill-14 {
0% {
fill: transparent;
}
100% {
fill: rgb(29, 29, 27);
}
}
.svLOGO-14 {
-webkit-animation: animate-svg-stroke-14 2s cubic-bezier(0.25, 0.46, 0.45, 0.94) 1.56s both,
animate-svg-fill-14 1s cubic-bezier(0.68, -0.55, 0.265, 1.55) 2.1s both;
animation: animate-svg-stroke-14 2s cubic-bezier(0.25, 0.46, 0.45, 0.94) 1.56s both,
animate-svg-fill-14 1s cubic-bezier(0.68, -0.55, 0.265, 1.55) 2.1s both;
}
@-webkit-keyframes animate-svg-stroke-15 {
0% {
stroke-dashoffset: 280.7680358886719px;
stroke-dasharray: 280.7680358886719px;
}
100% {
stroke-dashoffset: 0;
stroke-dasharray: 280.7680358886719px;
}
}
@keyframes animate-svg-stroke-15 {
0% {
stroke-dashoffset: 280.7680358886719px;
stroke-dasharray: 280.7680358886719px;
}
100% {
stroke-dashoffset: 0;
stroke-dasharray: 280.7680358886719px;
}
}
@-webkit-keyframes animate-svg-fill-15 {
0% {
fill: transparent;
}
100% {
fill: rgb(29, 29, 27);
}
}
@keyframes animate-svg-fill-15 {
0% {
fill: transparent;
}
100% {
fill: rgb(29, 29, 27);
}
}
.svLOGO-15 {
-webkit-animation: animate-svg-stroke-15 2s cubic-bezier(0.25, 0.46, 0.45, 0.94) 1.68s both,
animate-svg-fill-15 1s cubic-bezier(0.68, -0.55, 0.265, 1.55) 2.2s both;
animation: animate-svg-stroke-15 2s cubic-bezier(0.25, 0.46, 0.45, 0.94) 1.68s both,
animate-svg-fill-15 1s cubic-bezier(0.68, -0.55, 0.265, 1.55) 2.2s both;
}
@-webkit-keyframes animate-svg-stroke-16 {
0% {
stroke-dashoffset: 114.21819305419922px;
stroke-dasharray: 114.21819305419922px;
}
100% {
stroke-dashoffset: 0;
stroke-dasharray: 114.21819305419922px;
}
}
@keyframes animate-svg-stroke-16 {
0% {
stroke-dashoffset: 114.21819305419922px;
stroke-dasharray: 114.21819305419922px;
}
100% {
stroke-dashoffset: 0;
stroke-dasharray: 114.21819305419922px;
}
}
@-webkit-keyframes animate-svg-fill-16 {
0% {
fill: transparent;
}
100% {
fill: rgb(29, 29, 27);
}
}
@keyframes animate-svg-fill-16 {
0% {
fill: transparent;
}
100% {
fill: rgb(29, 29, 27);
}
}
.svLOGO-16 {
-webkit-animation: animate-svg-stroke-16 2s cubic-bezier(0.25, 0.46, 0.45, 0.94) 1.7999999999999998s both,
animate-svg-fill-16 1s cubic-bezier(0.68, -0.55, 0.265, 1.55) 2.3s both;
animation: animate-svg-stroke-16 2s cubic-bezier(0.25, 0.46, 0.45, 0.94) 1.7999999999999998s both,
animate-svg-fill-16 1s cubic-bezier(0.68, -0.55, 0.265, 1.55) 2.3s both;
}</style></svg>